<svg id="Layer_1" enable-background="new 0 0 497 497" height="512" viewBox="0 0 497 497" width="512" xmlns="http://www.w3.org/2000/svg"><g><g><g><g><path d="m0 141.599h207.134v202.185h-207.134z" fill="#fff136"/><path d="m207.134 141.599 222.477-108.647v202.184l-222.477 108.648z" fill="#fff56b"/><path d="m386.611 53.951v200.684l-179.477 87.649v1.5l222.477-108.648v-202.184z" fill="#fff136"/><path d="m222.477 32.952h207.134l-222.477 108.647h-207.134z" fill="#ffe11c"/></g></g><g><path d="m497 399.724h-258.725l25.796-116.555h207.133z" fill="#ffe11c"/><path d="m471.204 283.169h-40l25.796 116.555h40z" fill="#f7d705"/><path d="m238.275 399.724h258.725v64.324h-258.725z" fill="#fff56b"/><path d="m457 399.724h40v64.324h-40z" fill="#fff136"/></g></g><path d="m171.5 246c-4.142 0-7.5-3.357-7.5-7.5v-59c0-4.143 3.358-7.5 7.5-7.5s7.5 3.357 7.5 7.5v59c0 4.143-3.358 7.5-7.5 7.5z" fill="#ffe11c"/></g></svg>