<?xml version="1.0" encoding="iso-8859-1"?>
<!-- Generator: Adobe Illustrator 19.0.0, SVG Export Plug-In . SVG Version: 6.00 Build 0)  -->
<svg version="1.1" id="Capa_1" xmlns="http://www.w3.org/2000/svg" xmlns:xlink="http://www.w3.org/1999/xlink" x="0px" y="0px"
	 viewBox="0 0 511.999 511.999" style="enable-background:new 0 0 511.999 511.999;" xml:space="preserve">
<path style="fill:#30AA44;" d="M383.945,96.105c-16.005-53.74-59.044-48.076-73.162-44.615c-2.934,0.719-6.029,0.506-8.798-0.703
	c-32.039-13.99-52.119,6.517-59.531,16.452c-2.081,2.789-5.388,4.434-8.865,4.293c-25.483-1.037-30.152,22.079-30.152,22.079v74.54
	h180.508V96.105H383.945z"/>
<path style="fill:#269E35;" d="M224.575,100.29c0,0,4.669-23.116,30.151-22.079c3.477,0.141,6.784-1.503,8.865-4.293
	c7.412-9.934,27.491-30.442,59.531-16.452c2.769,1.209,5.864,1.422,8.798,0.703c5.082-1.245,13.912-2.776,23.879-1.719
	c-17.33-9.953-36.471-7.056-45.017-4.962c-2.934,0.719-6.029,0.506-8.798-0.703c-32.039-13.99-52.118,6.517-59.531,16.452
	c-2.081,2.789-5.388,4.434-8.865,4.293c-25.483-1.037-30.151,22.079-30.151,22.079v74.54h21.138V100.29H224.575z"/>
<path style="fill:#3BBC56;" d="M239.218,127.808c-42.812-63.389-94.435-39.003-109.889-29.554c-2.985,1.826-6.478,2.699-9.954,2.296
	c-54.189-6.286-67.951,37.689-67.951,37.689v80.747h187.795L239.218,127.808L239.218,127.808z"/>
<path style="fill:#30AA44;" d="M73.816,146.166c0,0,13.762-43.975,67.951-37.689c3.476,0.403,6.969-0.471,9.954-2.296
	c8.804-5.384,29.35-15.608,53.316-11.693c-32.897-18.452-64.248-3.241-75.709,3.766c-2.985,1.826-6.478,2.699-9.954,2.296
	c-54.189-6.286-67.951,37.689-67.951,37.689v80.747h22.393L73.816,146.166L73.816,146.166z"/>
<path style="fill:#83CC8E;" d="M441.043,139.951c-52.11-73.071-112.262-40.823-129.786-28.962c-3.244,2.196-7.301,2.862-11.086,1.85
	c-47.063-12.586-69.836,22.825-77.22,37.94c-1.892,3.875-5.473,6.66-9.686,7.579c-38.449,8.381-32.435,47.748-32.435,47.748v89.047
	h134.781L441.043,139.951z"/>
<g>
	<path style="fill:#78C181;" d="M319.613,115.023c3.784,1.012,7.841,0.346,11.085-1.85c8.776-5.94,28.243-16.991,52.035-17.37
		c-32.32-7.927-60.405,7.691-71.476,15.185c-1.165,0.788-2.437,1.371-3.761,1.758C311.344,113.153,315.378,113.891,319.613,115.023z
		"/>
	<path style="fill:#78C181;" d="M200.271,295.153v-86.862c0,0-6.014-39.366,32.435-47.748c4.213-0.918,7.794-3.704,9.686-7.579
		c6.177-12.647,23.135-39.496,56.074-40.557c-45.907-11.289-68.221,23.441-75.516,38.373c-1.892,3.875-5.473,6.66-9.686,7.579
		c-38.449,8.381-32.435,47.748-32.435,47.748v89.047L200.271,295.153L200.271,295.153z"/>
</g>
<path style="fill:#30AA44;" d="M107.088,261.15c0,0-47.774,13.676-67.628-30.022c-1.025-2.256-2.574-4.232-4.561-5.713
	c-8.815-6.572-33.157-27.883-24.177-57.271c10.542-34.502,70.721-49.521,117.217,10.63c2.855,3.694,6.984,6.226,11.581,7.037
	c14.837,2.618,49.313,13.348,65.364,57.108c2.309,6.293,7.347,11.182,13.722,13.252c10.816,3.511,29.72,12.985,40.651,32.932
	c-4.746,8.66-9.372,18.471-10.875,31.996c-4.339,39.054,3.423,53.251,2.956,65.157v26.901c0,0-46.093,7-70.85-41.001
	S107.088,261.15,107.088,261.15z"/>
<path style="fill:#269E35;" d="M59.46,231.127c-1.025-2.256-2.574-4.232-4.561-5.713c-8.815-6.572-33.157-27.883-24.177-57.271
	c4.591-15.028,18.601-26.355,36.793-29.389c-27.467-4.303-50.627,9.204-56.794,29.389c-8.979,29.388,15.362,50.699,24.177,57.271
	c1.987,1.481,3.536,3.457,4.561,5.713c15.257,33.579,46.995,33.28,60.878,31.34C85.997,260.347,69.3,252.786,59.46,231.127z"/>
<path style="fill:#83CC8E;" d="M180.012,344.859c-23.446-44.132-49.561-97.354-112.891-138.389c-2.162-1.401-4.493,1.56-2.619,3.327
	c23.999,22.639,63.36,69.617,90.544,152.138c32.266,97.95,81.689,104.465,102.212,102.47v-56.984
	C241.223,406.217,207.699,396.976,180.012,344.859z"/>
<path style="fill:#78C181;" d="M179.332,361.937c-9.843-29.881-21.285-55.079-33.014-76.172
	c-18.413-27.764-42.576-55.567-79.198-79.295c-2.162-1.401-4.493,1.56-2.619,3.327c23.999,22.639,63.36,69.617,90.544,152.138
	c32.266,97.95,81.689,104.465,102.212,102.47v-2.516C233.565,454.757,202.157,431.227,179.332,361.937z"/>
<path style="fill:#30AA44;" d="M407.427,261.15c0,0,47.775,13.677,67.628-30.022c1.025-2.256,2.574-4.232,4.561-5.713
	c8.815-6.572,33.157-27.883,24.177-57.271c-10.542-34.502-70.721-49.521-117.217,10.63c-2.855,3.693-6.984,6.226-11.581,7.037
	c-14.838,2.617-49.313,13.348-65.364,57.108c-2.308,6.293-7.347,11.182-13.722,13.251c-15.512,5.036-43.561,20.249-48.527,64.928
	c-6.93,62.37,19.56,61.343-11.505,88.834c0,0,0.773,17.058,37.065,9.723C309.235,412.323,407.427,261.15,407.427,261.15z"/>
<path style="fill:#269E35;" d="M257.258,409.933c31.065-27.492,4.575-26.464,11.505-88.834
	c4.964-44.678,33.013-59.892,48.526-64.928c6.375-2.07,11.414-6.959,13.722-13.251c16.052-43.759,50.527-54.491,65.364-57.108
	c4.597-0.811,8.726-3.344,11.581-7.037c19.052-24.647,40.398-36.667,59.689-39.903c-23.662-4.226-54.584,5.638-81.07,39.903
	c-2.855,3.693-6.984,6.226-11.581,7.037c-14.838,2.617-49.313,13.348-65.364,57.108c-2.308,6.293-7.347,11.182-13.722,13.251
	c-15.512,5.036-43.562,20.249-48.527,64.928c-6.93,62.37,19.56,61.343-11.505,88.834c0,0,0.732,15.688,32.841,10.485
	C257.621,417.56,257.258,409.933,257.258,409.933z"/>
<path style="fill:#83CC8E;" d="M334.502,344.859c-31.285,58.89-70.042,63.044-82.573,62.709c-1.346-0.201-2.713-0.339-4.114-0.339
	c-15.275,0-27.658,12.383-27.658,27.658c0,14.017,10.427,25.599,23.948,27.412c2.584,0.346,5.159,0.773,7.713,1.298
	c15.437,3.169,72.011,6.533,107.651-101.66c27.184-82.522,66.545-129.5,90.544-152.138c1.874-1.768-0.457-4.728-2.619-3.327
	C384.063,247.506,357.948,300.727,334.502,344.859z"/>
<path style="fill:#78C181;" d="M240.528,447.767c0-15.275,12.383-27.658,27.658-27.658c1.402,0,2.769,0.138,4.115,0.339
	c12.53,0.335,51.288-3.82,82.573-62.709c6.559-12.346,13.328-25.405,21.062-38.707c24.995-56.442,54.597-90.857,74.077-109.234
	c1.874-1.768-0.457-4.728-2.619-3.327c-63.331,41.034-89.446,94.256-112.892,138.389c-31.285,58.89-70.042,63.044-82.573,62.709
	c-1.346-0.201-2.712-0.339-4.115-0.339c-15.275,0-27.658,12.383-27.658,27.658c0,14.017,10.427,25.599,23.948,27.412
	c0.203,0.027,0.404,0.063,0.607,0.091C242.063,458.148,240.528,453.138,240.528,447.767z"/>
<path d="M442.964,131.616c-16.205-21.471-34.396-35.407-54.377-41.671c-13.47-39.62-45.333-54.441-80.846-45.74
	c-3.95,0.969-4.779-1.669-15.73-4.195c-4.037-0.931-8.063,1.585-8.994,5.622c-0.932,4.036,1.586,8.063,5.621,8.994
	c9.553,2.203,13.087,6.495,22.673,4.148c13.313-3.264,43.856-6.329,59.758,27.683c-22.983-2.059-46.212,5.419-65.272,18.321
	c-1.438,0.974-3.24,1.271-4.945,0.816c-22.626-6.053-42.767-2.762-59.863,9.779c-0.598,0.439-1.174,0.891-1.751,1.343
	c-8.577-11.313-17.884-20.167-27.874-26.513c2.542-4.91,8.302-11.668,20.664-11.179c5.879,0.233,11.589-2.488,15.183-7.301
	c2.451-3.287,6.573-8.006,12.285-11.828c3.442-2.303,4.366-6.961,2.063-10.404c-2.304-3.443-6.961-4.365-10.404-2.063
	c-7.481,5.005-12.813,11.097-15.967,15.325c-0.629,0.843-1.571,1.321-2.55,1.284c-18.971-0.773-29.626,9.75-34.619,19.34
	c-24.537-9.698-51.556-5.158-73.858,8.48c-1.635,1.001-3.479,1.446-5.178,1.244c-35.936-4.167-62.278,12.327-74.133,38.296
	c-47.997,8.149-63.831,64.147-15.689,100.032c0.932,0.695,1.698,1.665,2.216,2.803c13.346,29.376,41.155,40.331,70.901,35.33
	c15.425,23.997,31.362,55.177,44.389,94.724c31.13,94.502,79.084,107.894,103.719,107.892c2.048,0,3.926-0.096,5.629-0.242
	c31.89,2.701,72.533-16.068,101.266-85.814c1.578-3.829-0.248-8.213-4.078-9.791c-3.827-1.576-8.213,0.247-9.791,4.078
	c-30.096,73.056-69.699,78.191-86.679,76.537c-4.534-0.442-5.539-1.092-12.888-2.078c-9.943-1.333-17.443-9.921-17.443-19.978
	c0-11.113,9.042-20.158,20.158-20.158c2.235,0,19.485,2.663,41.986-9.737c54.149-29.84,55.887-91.559,115.361-153.962
	c-16.592,23.925-33.609,54.973-48.007,94.675c-1.412,3.894,0.6,8.195,4.494,9.607c3.895,1.411,8.197-0.601,9.607-4.494
	c11.987-33.057,25.805-59.821,39.581-81.282c29.233,4.973,57.456-5.402,71.043-35.306c0.518-1.139,1.284-2.108,2.216-2.804
	C540.202,188.672,505.506,120.287,442.964,131.616z M117.253,108c5.015,0.582,10.25-0.606,14.732-3.348
	c33.554-20.518,68.784-14.76,96.322,22.49c-6.163,7.11-10.494,14.493-13.353,20.347c-0.873,1.788-2.571,3.111-4.545,3.541
	c-23.417,5.105-32.619,20.312-36.215,32.168c-0.843,2.781-1.413,5.501-1.79,8.054c-12.946-8.219-25.44-11.522-32.839-12.827
	c-2.743-0.484-5.211-1.989-6.949-4.238c-20.03-25.913-45.313-41.286-70.287-43.472C74.825,111.686,94.826,105.397,117.253,108z
	 M212.517,443.656c-17.409-12.971-36.342-37.734-51.605-84.066c-12.53-38.037-30.031-75.599-53.403-109.172
	c60.773,63.342,61.976,127.233,118.476,155.974C214.247,414.894,208.894,429.682,212.517,443.656z M242.09,380.249
	c1,6.198,0.612,10.035-3.681,15.341c-12.315-4.964-27.148-15.126-41.515-35.428c1.682-21.557,14.165-36.838,14.389-37.11
	c2.659-3.164,2.257-7.886-0.902-10.554c-3.164-2.673-7.896-2.274-10.569,0.89c-0.492,0.583-9.318,11.196-14.464,27.89
	c-22.961-43.216-50.358-98.956-115.403-141.102c-9.755-6.322-20.327,7.075-11.845,15.077c9.034,8.521,21.383,21.707,34.681,40.297
	c-21.503,1.285-38.597-7.387-47.748-27.528c-1.563-3.438-3.951-6.419-6.907-8.622c-8.933-6.659-28.91-24.772-21.486-49.066
	c8.8-28.805,61.67-41.878,104.108,13.025c4.026,5.208,9.783,8.702,16.213,9.836c13,2.294,44.834,11.981,59.626,52.306
	c3.127,8.522,9.851,15.011,18.449,17.803c9.731,3.158,22.933,10.041,32.373,24.983C233.431,317.538,237.178,350.435,242.09,380.249z
	 M219.665,249.037c-4.188-1.359-7.467-4.53-8.997-8.7c-6.082-16.583-14.662-28.78-23.918-37.764
	c-0.484-7.657,0.282-31.093,26.854-36.886c6.513-1.42,11.918-5.654,14.829-11.615c3.012-6.165,7.522-13.613,13.88-20.165
	c0.675-0.481,1.245-1.055,1.708-1.693c11.468-10.94,28.489-18.672,52.954-12.129c5.906,1.579,12.186,0.529,17.23-2.884
	c12.578-8.515,37.433-21.292,65.669-14.167c2.81,1.144,24.044,4.29,47.544,33.066c-17.317,6.89-33.968,19.895-48.033,38.089
	c-1.738,2.249-4.206,3.753-6.949,4.238c-15.558,2.744-53.628,14.27-71.103,61.911c-4.227,11.518-13.58,6.308-32.645,21.203
	c7.414-27.61,20.868-51.434,40.059-71.026c19.013-19.411,36.931-27.28,37.109-27.357c3.799-1.631,5.563-6.03,3.939-9.835
	c-1.625-3.81-6.03-5.582-9.842-3.955c-0.534,0.228-8.985,3.897-20.613,12.285c-3.233-10.105-8.339-16.275-8.633-16.624
	c-2.667-3.167-7.396-3.574-10.568-0.907c-3.168,2.668-3.574,7.399-0.906,10.568c0.061,0.072,5.486,6.806,7.205,17.318
	c-2.579,2.293-5.216,4.779-7.878,7.473c-6.864,6.946-14.364,15.804-21.47,26.736c-4.539-23.644-14.939-35.516-15.513-36.153
	c-2.768-3.08-7.528-3.354-10.61-0.585c-3.08,2.769-3.352,7.49-0.583,10.571c0.143,0.163,14.047,16.529,13.785,49.863
	c-5.18,11.499-9.607,24.555-12.673,39.276C240.312,257.265,227.523,251.588,219.665,249.037z M473.877,219.402
	c-2.956,2.203-5.345,5.185-6.907,8.623c-11.65,25.643-34.401,28.455-47.937,27.581c12.492-17.447,24.594-30.657,34.869-40.351
	c3.641-3.435,4.053-8.996,0.958-12.938c-3.095-3.943-8.6-4.865-12.802-2.14c-60.696,39.326-88.607,90.488-110.705,132.228
	c-6.941-16.683-17.298-26.699-17.863-27.237c-2.999-2.854-7.747-2.736-10.604,0.264c-2.855,3.001-2.737,7.748,0.264,10.604
	c0.142,0.134,13.946,13.483,18.182,34.606c-24.573,40.394-52.102,48.077-65.372,49.252c-0.716-0.062-1.462-0.142-2.234-0.24
	c11.634-19.856-7.538-33.178,0.574-82.884c4.679-28.659,20.889-46.396,42.666-53.466c8.597-2.79,15.322-9.278,18.449-17.803
	c14.792-40.324,46.626-50.013,59.626-52.306c6.428-1.134,12.186-4.627,16.212-9.835c12.454-16.113,30.505-31.467,50.245-36.109
	C490.404,134.953,520.255,184.828,473.877,219.402z"/>
<g>
</g>
<g>
</g>
<g>
</g>
<g>
</g>
<g>
</g>
<g>
</g>
<g>
</g>
<g>
</g>
<g>
</g>
<g>
</g>
<g>
</g>
<g>
</g>
<g>
</g>
<g>
</g>
<g>
</g>
</svg>
